<?xml version="1.0" encoding="UTF-8"?>
<svg version="1.1" xmlns="http://www.w3.org/2000/svg" width="512" height="512">
<path d="M0 0 C168.96 0 337.92 0 512 0 C512 168.96 512 337.92 512 512 C343.04 512 174.08 512 0 512 C0 343.04 0 174.08 0 0 Z " fill="#04C403" transform="translate(0,0)"/>
<path d="M0 0 C75.9 0 151.8 0 230 0 C230 13.53 230 27.06 230 41 C167.96 41 105.92 41 42 41 C42 66.74 42 92.48 42 119 C99.09 119 156.18 119 215 119 C215 131.87 215 144.74 215 158 C157.91 158 100.82 158 42 158 C42 188.03 42 218.06 42 249 C105.36 249 168.72 249 234 249 C234 262.2 234 275.4 234 289 C156.78 289 79.56 289 0 289 C0 193.63 0 98.26 0 0 Z " fill="#FCFDFC" transform="translate(141,108)"/>
<path d="M0 0 C168.96 0 337.92 0 512 0 C512 168.96 512 337.92 512 512 C343.04 512 174.08 512 0 512 C0 343.04 0 174.08 0 0 Z M69 18 C67.89761899 18.38834833 66.79523798 18.77669666 65.65945148 19.17681313 C46.04969737 26.41011151 31.11225996 41.56537085 21.6875 59.875 C21.37409668 60.4738501 21.06069336 61.0727002 20.73779297 61.68969727 C15.19422056 73.00646627 13.40704508 84.38003118 13.49206543 96.86997986 C13.48744413 98.31505873 13.48108304 99.76013288 13.47315645 101.20519739 C13.45660816 105.13528899 13.46464253 109.06498723 13.47710133 112.9950794 C13.48620967 117.24944618 13.47215356 121.50374871 13.46118164 125.75810242 C13.4434527 134.07652848 13.44721135 142.39480967 13.4588322 150.71324127 C13.46788909 157.47814153 13.4690808 164.24300137 13.46473694 171.00790596 C13.46412401 171.97305469 13.46351107 172.93820342 13.46287957 173.93259909 C13.46160058 175.89368165 13.46030373 177.85476421 13.4589892 179.81584675 C13.44759972 198.1786824 13.46067114 216.541438 13.48219067 234.90426052 C13.50005731 250.63665321 13.49695794 266.3689278 13.47851562 282.10131836 C13.45707512 300.39973965 13.44870119 318.69809087 13.46096468 336.99652296 C13.46223879 338.95044139 13.46349627 340.90435983 13.46473694 342.85827827 C13.46535404 343.81947636 13.46597114 344.78067444 13.46660694 345.77099974 C13.47005053 352.52181364 13.4642529 359.27258284 13.45481873 366.02338982 C13.44356184 374.25901344 13.44671587 382.4944847 13.4679417 390.73009103 C13.47840314 394.92645897 13.48265855 399.12257355 13.46934509 403.31893921 C13.45731239 407.17007174 13.46415991 411.02071916 13.4852553 414.87180848 C13.49174905 416.90402631 13.47888322 418.93627858 13.46502638 420.96845955 C13.6538777 443.42606453 23.46771709 461.99464901 38.6875 478.1875 C54.60319641 493.48916491 74.33327733 500.31880927 96.19277954 500.26742554 C97.6252896 500.27116682 99.05779762 500.27577024 100.49030244 500.28115618 C104.40878042 500.29334283 108.32717273 500.29313085 112.24566531 500.29076743 C116.47897568 500.29035816 120.71225899 500.30140901 124.94555664 500.31088257 C133.23320984 500.32747028 141.52083458 500.33299113 149.80850299 500.33410732 C156.54872467 500.33505896 163.288937 500.33917502 170.02915573 500.34550858 C189.15746209 500.36311575 208.28574603 500.37234839 227.41406055 500.37084763 C228.44450553 500.37076772 229.47495051 500.3706878 230.53662109 500.37060547 C232.08418575 500.37048283 232.08418575 500.37048283 233.66301434 500.37035771 C250.37478486 500.3695452 267.08646518 500.38867537 283.79820962 500.4168822 C300.9758919 500.44564561 318.15353024 500.45942056 335.3312372 500.45769465 C344.96784868 500.45703189 354.60436562 500.46247398 364.24095535 500.48405075 C372.44740733 500.50230819 380.65372191 500.50657262 388.86018546 500.4930319 C393.04235279 500.4865249 397.22425687 500.48630233 401.40639877 500.5037384 C405.24476186 500.51957569 409.08265531 500.51649836 412.92100768 500.49917014 C414.94651784 500.49469463 416.9720432 500.50967351 418.99749529 500.52564943 C431.02821353 500.43616272 442.6123903 497.92425694 453.3125 492.25 C453.97781738 491.90565918 454.64313477 491.56131836 455.32861328 491.20654297 C461.12688514 488.1110344 466.15824614 484.45408362 471 480 C471.82886719 479.26265625 472.65773438 478.5253125 473.51171875 477.765625 C488.54826107 463.67318411 497.6342103 444.04942034 499.27992713 423.50561476 C499.38542434 419.85665868 499.40501003 416.21824695 499.38768005 412.56781006 C499.39186469 411.17024411 499.39734834 409.77268156 499.40399987 408.37512517 C499.41832552 404.57630433 499.41425061 400.77770282 499.40683305 396.97887063 C499.40207134 392.86555774 499.41463768 388.75229027 499.42485046 384.63899231 C499.44198615 376.59631426 499.44288927 368.55371451 499.43763756 360.51102296 C499.43358434 353.96831116 499.43505305 347.42562239 499.44038582 340.88291168 C499.44113424 339.94915809 499.44188266 339.0154045 499.44265376 338.05335535 C499.44418536 336.15597699 499.44572371 334.25859863 499.44726873 332.36122027 C499.46097521 314.59490288 499.45556944 296.8286296 499.44408352 279.06231323 C499.43415619 262.84110487 499.44708648 246.62001065 499.47101771 230.39881989 C499.49545458 213.70799475 499.50500514 197.01722267 499.49836498 180.32638001 C499.49488255 170.96976798 499.49703994 161.61324363 499.51461601 152.2566452 C499.52939564 144.29047301 499.5298988 136.32445025 499.5125451 128.35828081 C499.50407929 124.30127619 499.50177596 120.24453786 499.51719666 116.18754768 C499.84176708 87.94374306 499.84176708 87.94374306 491.4375 61.25 C490.93259033 60.21842773 490.93259033 60.21842773 490.41748047 59.16601562 C479.96902431 38.7673203 462.06870833 24.4193652 440.609375 16.97265625 C430.97121404 14.37535963 421.80208121 13.70853979 411.83918762 13.73257446 C410.4345377 13.72883069 409.02988987 13.72422629 407.62524527 13.71884382 C403.79302701 13.7066882 399.96089653 13.70686543 396.12866342 13.70923257 C391.98466758 13.70964263 387.84069918 13.69858362 383.69671631 13.68911743 C375.58814073 13.67254739 367.47959423 13.6670097 359.37100313 13.66589268 C352.77576535 13.66494031 346.18053711 13.66082063 339.58530235 13.65449142 C320.86124056 13.63688999 302.13720164 13.62765085 283.41313151 13.62915237 C282.40498903 13.62923228 281.39684655 13.6293122 280.3581543 13.62939453 C279.34877214 13.62947629 278.33938999 13.62955805 277.2994205 13.62964229 C260.94734406 13.6304549 244.5953598 13.61132071 228.24331001 13.5831178 C211.42829343 13.55434665 194.61332175 13.54057983 177.79827994 13.54230535 C168.36790457 13.54296779 158.93762584 13.53753984 149.50727272 13.51594925 C141.4772983 13.4976817 133.44746433 13.49343569 125.41747806 13.5069681 C121.32630778 13.51346971 117.23540652 13.51371746 113.14426231 13.4962616 C90.72312307 13.10946692 90.72312307 13.10946692 69 18 Z " fill="#FAFCFA" transform="translate(0,0)"/>
</svg>
